<?xml version="1.0" standalone="no"?>
<!DOCTYPE svg PUBLIC "-//W3C//DTD SVG 20010904//EN"
 "http://www.w3.org/TR/2001/REC-SVG-20010904/DTD/svg10.dtd">
<svg version="1.0" xmlns="http://www.w3.org/2000/svg"
 width="500.000000pt" height="500.000000pt" viewBox="0 0 500.000000 500.000000"
 preserveAspectRatio="xMidYMid meet">

<g transform="translate(0.000000,500.000000) scale(0.100000,-0.100000)"
fill="#000000" stroke="none">
<path d="M738 4853 c-104 -110 -118 -489 -43 -1218 8 -77 17 -178 20 -225 10
-133 45 -473 52 -495 9 -32 -11 -7 -23 28 -26 76 -79 2 -80 -110 0 -40 -3 -76
-7 -79 -4 -4 -7 -30 -7 -59 0 -41 7 -61 33 -103 31 -47 34 -60 40 -155 11
-183 40 -294 93 -356 36 -43 72 -60 144 -68 60 -6 60 -6 60 -39 0 -30 -6 -36
-82 -83 -46 -28 -123 -68 -171 -88 -88 -38 -88 -38 -60 -50 15 -7 42 -12 58
-13 61 -1 57 -16 -12 -44 -109 -43 -108 -42 -79 -118 51 -137 79 -171 114
-136 18 18 14 -3 -5 -24 -15 -17 -15 -20 3 -54 10 -20 36 -55 56 -78 33 -37
39 -40 57 -28 28 16 30 15 24 -8 -3 -10 4 -34 16 -53 23 -38 130 -144 212
-211 55 -45 57 -46 130 -47 41 0 92 -3 114 -7 l40 -7 -45 -14 -45 -14 128 -42
c201 -67 449 -214 522 -310 22 -29 55 -64 74 -76 19 -13 52 -38 73 -56 51 -42
198 -115 220 -110 9 3 18 1 20 -4 7 -20 121 -32 181 -20 31 7 57 16 57 21 0 4
8 6 18 3 26 -6 174 73 262 141 41 32 94 81 116 110 74 94 316 236 512 301 69
23 121 44 116 47 -5 3 -22 9 -39 13 l-30 8 30 7 c17 4 67 8 112 9 l82 1 83 72
c142 124 205 200 195 238 -6 24 -3 25 27 5 22 -15 24 -13 65 42 62 84 67 97
47 128 -17 26 -17 26 3 16 11 -6 25 -11 31 -11 11 0 84 147 96 194 5 22 0 27
-58 54 -34 16 -74 33 -87 37 -30 9 -10 24 34 25 17 1 43 6 59 13 29 13 29 13
-60 50 -109 46 -242 126 -250 150 -11 34 5 57 39 57 60 0 111 22 153 64 56 56
82 141 96 311 13 167 12 165 48 210 25 32 30 46 30 95 0 31 -3 60 -7 64 -4 4
-6 37 -5 74 2 55 -2 74 -20 106 -13 22 -28 41 -34 43 -6 2 -19 -15 -28 -38 -9
-23 -18 -40 -20 -38 -2 2 2 44 10 94 14 94 23 319 13 329 -3 3 -45 13 -94 21
-49 9 -91 18 -94 21 -5 5 19 177 46 332 l16 93 51 -7 c28 -5 69 -8 91 -9 l40
0 12 95 c38 315 35 703 -8 861 -22 84 -65 149 -97 149 -36 0 -374 -385 -567
-645 -33 -44 -140 -199 -237 -345 l-178 -264 0 69 c0 63 -11 108 -23 95 -17
-18 -122 -252 -148 -330 -6 -17 -7 -5 -4 35 6 66 52 248 78 307 9 20 13 39 9
41 -10 6 -263 -137 -278 -157 -10 -15 -13 -14 -28 8 -31 48 -101 107 -161 136
-61 30 -165 51 -165 33 0 -5 21 -29 46 -53 74 -73 95 -117 102 -215 2 -47 2
-85 -2 -85 -4 0 -17 7 -30 15 -39 26 -130 38 -194 25 -31 -7 -68 -19 -80 -27
-13 -8 -27 -12 -30 -8 -4 4 -7 55 -7 113 0 96 3 113 27 162 15 30 24 58 19 63
-10 10 -111 -58 -179 -121 l-53 -49 -21 28 c-24 32 -10 32 -220 -2 -64 -11
-122 -16 -130 -13 -32 14 -152 167 -391 499 -183 255 -525 657 -574 676 -34
13 -36 12 -65 -18z m127 -75 c69 -74 317 -382 365 -453 19 -27 57 -79 85 -115
40 -51 257 -369 299 -438 6 -11 4 -13 -11 -8 -12 4 -100 -20 -217 -59 -109
-37 -199 -65 -200 -63 -2 2 -20 71 -41 153 -91 359 -264 783 -337 829 -54 33
-75 -116 -58 -409 11 -197 28 -336 89 -760 22 -154 43 -312 47 -352 7 -71 6
-73 -25 -108 -17 -20 -31 -38 -31 -42 0 -3 18 -3 39 0 41 5 51 -3 51 -44 0
-15 -7 -19 -30 -19 -17 0 -44 -7 -61 -15 -23 -12 -30 -13 -33 -3 -5 14 -32
247 -41 343 -2 33 -14 148 -25 255 -37 371 -62 726 -62 895 0 240 32 415 89
477 21 23 36 14 108 -64z m3425 -28 c32 -110 44 -218 43 -395 0 -144 -28 -553
-38 -563 -5 -5 -70 8 -83 17 -10 6 -8 43 7 162 36 276 45 415 34 527 -12 122
-26 146 -67 119 -42 -28 -207 -386 -250 -542 -7 -27 -32 -113 -54 -190 -23
-78 -59 -219 -81 -315 -48 -210 -61 -248 -106 -311 -19 -27 -35 -52 -35 -56 0
-15 56 46 92 102 l40 60 -6 -107 c-7 -155 -53 -244 -158 -308 -55 -34 -60 -42
-19 -30 41 11 117 57 179 108 l53 43 -16 -38 c-21 -51 -59 -107 -107 -159 -40
-44 -41 -44 -109 -44 -62 0 -70 2 -85 25 -22 33 -55 40 -93 21 -17 -9 -31 -14
-31 -11 0 3 16 29 35 58 19 28 35 61 35 72 0 25 -121 269 -135 272 -6 2 -30
-31 -54 -72 -24 -42 -45 -75 -47 -73 -2 2 8 45 22 95 25 91 25 92 10 213 l-15
122 99 156 c265 420 608 884 800 1084 l69 72 26 -24 c15 -14 33 -50 45 -90z
m-3322 -632 l3 -58 -66 0 -65 0 0 53 c0 30 3 57 7 61 4 4 32 6 63 4 l55 -3 3
-57z m3190 -1 l3 -58 -63 3 -63 3 -3 44 c-5 68 0 72 65 69 l58 -3 3 -58z
m-3083 -296 c0 -40 -21 -57 -58 -47 -23 5 -27 12 -27 40 0 42 6 48 50 44 33
-3 35 -5 35 -37z m2933 -3 c-3 -39 -6 -43 -31 -46 -36 -4 -57 13 -57 48 0 35
6 40 52 40 l39 0 -3 -42z m-1327 -19 c59 -38 140 -123 170 -180 19 -35 24 -60
24 -122 0 -76 0 -77 14 -45 7 18 16 78 20 132 l6 100 93 52 c50 29 92 48 92
42 0 -6 -9 -41 -19 -77 -35 -118 -52 -234 -49 -337 l3 -99 18 60 c19 65 120
326 140 363 11 20 16 -4 32 -173 21 -224 20 -235 -44 -427 -21 -65 -35 -118
-31 -118 14 0 95 101 142 177 l45 72 52 -114 53 -114 -53 -80 -54 -81 -136 0
c-106 0 -138 3 -142 14 -3 7 -26 18 -51 25 -162 40 -253 133 -281 284 -5 26
-12 37 -25 37 -15 0 -19 10 -22 66 -1 36 -1 67 2 69 5 3 201 -69 229 -83 8 -5
34 -46 58 -92 49 -96 49 -83 0 35 l-34 80 -124 46 -124 47 -3 43 c-2 24 2 62
8 83 30 102 -2 257 -68 323 -31 31 -32 34 -11 28 13 -4 45 -20 70 -36z m-378
-59 c-10 -37 -13 -84 -10 -144 l5 -88 -48 53 c-48 53 -67 106 -50 137 6 13
112 103 116 99 1 -1 -4 -27 -13 -57z m-1148 -57 l13 -43 -43 0 c-48 0 -62 19
-51 66 6 21 12 25 38 22 27 -3 33 -9 43 -45z m631 -26 c98 -41 262 -109 362
-152 l184 -78 -6 -30 c-3 -16 -6 -69 -6 -117 0 -77 -2 -88 -19 -93 -13 -3 -22
-21 -31 -58 -33 -138 -120 -221 -276 -260 -25 -7 -48 -18 -51 -25 -4 -11 -51
-14 -242 -13 -130 1 -301 4 -381 8 l-145 6 118 39 118 39 217 -6 c119 -4 260
-10 312 -13 108 -7 111 3 10 31 -36 10 -121 35 -190 55 -317 96 -348 103 -414
91 -34 -6 -81 -13 -106 -16 -42 -6 -217 -37 -285 -51 l-30 -6 20 22 c68 76
368 276 510 340 l67 30 117 -11 c179 -16 335 -36 460 -59 62 -11 115 -19 117
-17 4 3 -35 13 -266 68 -100 23 -285 66 -390 89 -47 11 -143 33 -215 49 -71
16 -151 33 -177 36 -27 4 -48 11 -48 16 0 8 442 158 471 158 9 1 96 -32 195
-72z m2140 49 c11 -46 -3 -66 -48 -66 l-40 0 7 37 c9 50 11 53 45 53 23 0 31
-6 36 -24z m-1784 -98 c42 -51 75 -94 74 -95 -1 -2 -43 15 -92 36 -49 21 -132
57 -184 79 -55 24 -88 43 -80 46 16 6 137 23 180 25 21 1 41 -17 102 -91z
m-1047 -82 l50 -11 3 -59 c4 -78 -4 -86 -94 -86 -84 0 -94 9 -94 82 0 81 16
103 65 90 11 -3 43 -10 70 -16z m2931 11 c13 -13 17 -123 5 -146 -10 -19 -20
-21 -86 -21 -85 0 -95 8 -95 82 0 58 9 86 29 92 23 7 139 1 147 -7z m-2651
-68 c50 -10 113 -23 140 -28 l50 -9 -40 -1 c-23 0 -45 -5 -50 -10 -6 -5 -54
-31 -107 -59 l-97 -50 -19 51 c-11 29 -23 72 -27 96 l-7 43 33 -7 c19 -3 75
-15 124 -26z m-137 -176 c-19 -24 -28 -13 -28 34 l0 48 19 -35 c13 -24 16 -39
9 -47z m2979 21 c12 -4 23 -16 26 -32 8 -41 -26 -390 -40 -414 -2 -5 -17 -1
-33 7 -16 8 -43 15 -60 15 -16 0 -30 4 -30 10 0 5 14 96 30 202 17 105 30 198
30 205 0 14 39 17 77 7z m-3173 -157 l-59 -44 -3 30 c-6 50 2 57 64 57 l56 0
-58 -43z m2977 3 c4 -19 4 -51 0 -70 l-7 -35 -69 0 -70 0 -3 64 c-4 77 2 82
83 79 59 -3 59 -3 66 -38z m-2423 -161 c83 -23 151 -43 150 -45 -2 -1 -74 2
-162 8 -125 8 -166 8 -198 -3 -37 -12 -40 -11 -63 12 -41 42 -36 52 30 65 33
7 67 11 75 8 8 -2 84 -22 168 -45z m-319 -20 c28 -18 51 -34 51 -35 0 -4 -70
-34 -79 -34 -7 0 -61 83 -61 94 0 15 43 3 89 -25z m-529 -89 c23 -50 23 -52 7
-98 -9 -26 -17 -55 -17 -64 0 -53 -47 20 -56 86 -7 46 19 142 35 132 4 -3 18
-28 31 -56z m3560 6 c7 -26 10 -63 6 -88 -7 -50 -42 -111 -50 -88 -41 127 -40
115 -11 175 15 30 31 53 35 50 4 -2 13 -25 20 -49z m-1608 -53 c10 -10 -31
-13 -202 -13 -128 0 -210 4 -204 9 17 17 49 19 221 18 122 -2 176 -6 185 -14z
m788 2 c11 -13 6 -15 -31 -15 -43 1 -44 1 -19 15 32 18 35 18 50 0z m-2618
-27 c8 -13 18 -41 22 -63 4 -22 9 -48 12 -58 5 -15 1 -18 -18 -15 -18 2 -25
12 -34 49 -14 55 -31 89 -45 89 -6 0 -7 5 -4 10 11 18 52 11 67 -12z m3321 16
c3 -3 -3 -14 -13 -24 -11 -11 -24 -38 -30 -62 -17 -66 -18 -68 -41 -68 -19 0
-21 4 -15 35 4 20 16 56 26 80 15 35 24 45 43 45 13 0 26 -3 30 -6z m-3467
-183 c-3 -20 -6 -45 -6 -56 0 -18 -2 -17 -27 7 -20 21 -27 39 -31 84 l-5 57
38 -28 c34 -26 36 -32 31 -64z m3610 4 c-4 -17 -17 -42 -30 -54 l-23 -22 -7
53 c-6 51 -5 54 27 80 l32 27 3 -26 c2 -14 1 -40 -2 -58z m-2416 -120 l0 -75
-257 -2 -258 -3 -3 -77 -3 -78 211 0 210 0 0 -75 0 -75 -207 -2 -208 -3 -3
-162 -2 -163 -75 0 -75 0 0 377 c0 336 2 378 17 395 15 17 39 18 335 18 l318
0 0 -75z m862 58 c17 -15 18 -40 18 -375 0 -345 -1 -359 -20 -378 -19 -19 -33
-20 -302 -20 -156 0 -293 3 -304 6 -41 11 -44 39 -44 397 0 294 2 346 16 365
15 22 16 22 316 22 266 0 304 -2 320 -17z m398 8 c0 -14 161 -291 169 -291 4
0 45 67 92 150 l84 149 79 1 c66 0 77 -2 72 -15 -3 -9 -49 -93 -101 -187 -52
-95 -95 -180 -95 -191 0 -11 45 -100 100 -199 55 -99 100 -184 100 -189 0 -17
-152 -6 -161 11 -127 224 -159 275 -170 275 -7 0 -51 -66 -97 -147 l-84 -148
-74 0 c-53 0 -74 4 -74 13 0 6 45 93 100 192 55 98 100 186 100 194 0 8 -45
95 -100 193 -55 98 -100 183 -100 188 0 6 34 10 80 10 44 0 80 -4 80 -9z m958
-176 c0 -22 -3 -49 -8 -60 -6 -13 -8 9 -8 65 0 57 3 77 8 60 4 -14 8 -43 8
-65z m-3254 -24 c-6 -46 -8 -52 -15 -31 -11 38 -10 76 3 107 l12 28 4 -24 c2
-14 1 -50 -4 -80z m-6 -274 c-4 -29 -32 -44 -51 -28 -14 11 -13 15 4 32 10 10
19 24 19 30 0 8 5 7 15 -1 9 -7 15 -22 13 -33z m3304 -7 c7 0 5 -7 -5 -17 -32
-32 -75 18 -46 53 11 14 14 12 26 -10 8 -14 19 -26 25 -26z m-2121 -190 c24
-13 26 -72 3 -94 -36 -37 -94 -6 -94 50 0 47 44 69 91 44z m895 -15 c36 -55
-25 -117 -80 -81 -30 19 -35 65 -10 90 24 25 71 20 90 -9z m876 8 c10 -9 18
-27 18 -40 0 -28 -33 -63 -60 -63 -11 0 -29 9 -40 20 -55 55 24 135 82 83z
m-2785 -211 c22 -115 49 -152 135 -182 l28 -9 -4 -93 c-5 -95 -1 -83 10 29 l5
61 32 -9 c63 -18 426 -50 616 -54 221 -5 210 -8 333 87 43 32 103 71 135 86
51 23 70 27 163 27 93 0 112 -4 162 -27 32 -15 92 -53 135 -86 126 -95 113
-92 334 -87 191 4 553 36 617 54 29 9 32 8 33 -12 1 -21 1 -21 8 1 4 16 19 28
44 37 89 30 122 103 142 313 l7 73 32 -21 c42 -28 119 -69 190 -101 53 -24 56
-28 35 -34 -13 -4 -69 -11 -124 -15 -55 -4 -91 -8 -80 -9 33 -2 167 -46 234
-76 70 -32 69 -25 16 -142 l-34 -73 -93 44 c-119 57 -177 71 -98 24 130 -77
149 -100 125 -151 -8 -17 -25 -45 -38 -60 l-22 -28 -80 46 c-44 25 -83 45 -87
45 -4 0 18 -24 48 -54 30 -30 54 -61 54 -70 0 -24 -90 -122 -185 -201 l-90
-75 -87 0 c-94 0 -192 -25 -238 -60 l-25 -19 55 6 c75 8 59 -5 -77 -61 -61
-26 -162 -79 -223 -117 -62 -38 -110 -63 -107 -57 114 268 174 365 251 405 17
9 26 18 20 20 -17 6 -120 -36 -136 -54 -11 -15 -11 -16 5 -10 11 4 16 3 12 -3
-4 -6 -22 -34 -41 -63 -19 -28 -48 -85 -65 -127 -86 -207 -167 -324 -256 -369
-23 -11 -73 -26 -112 -33 -60 -10 -80 -9 -143 5 -40 10 -93 17 -118 17 -25 0
-78 -7 -118 -17 -63 -15 -83 -15 -144 -5 -166 29 -230 97 -356 379 -32 71 -73
151 -92 178 -25 36 -29 47 -15 41 15 -5 16 -4 6 8 -15 18 -119 58 -135 53 -6
-2 3 -11 20 -20 51 -26 112 -104 158 -202 59 -124 96 -205 96 -210 0 -3 -35
18 -77 46 -80 52 -268 147 -335 168 -63 21 -59 35 8 27 l59 -6 -33 20 c-63 39
-147 60 -236 60 l-85 0 -74 59 c-80 64 -169 149 -193 186 -14 21 -14 26 0 53
9 17 34 46 58 66 56 48 39 45 -56 -9 -54 -31 -83 -42 -91 -35 -6 5 -24 32 -39
59 -25 47 -26 52 -11 75 16 24 53 51 135 100 40 23 41 26 15 21 -16 -4 -72
-26 -122 -50 l-93 -44 -24 52 c-33 70 -57 130 -54 132 27 23 249 103 293 106
11 1 -25 5 -80 9 -55 4 -111 11 -124 15 -22 7 -17 10 41 35 36 15 98 48 139
73 l74 45 8 -61 c4 -34 15 -99 24 -145z m193 -32 c52 -4 163 -15 245 -24 317
-33 395 -39 563 -45 l172 -6 -57 -45 c-31 -25 -66 -50 -77 -57 -53 -31 -626
-1 -831 44 -108 23 -144 51 -166 126 -8 29 -8 29 24 23 18 -4 75 -11 127 -16z
m2663 -26 c-32 -94 -110 -116 -508 -149 -219 -18 -452 -19 -481 -2 -11 7 -46
32 -77 57 l-57 45 167 6 c93 3 227 11 298 18 246 23 530 52 585 60 97 15 91
17 73 -35z m-1294 -1243 c75 -16 104 -18 153 -10 33 5 62 8 65 6 7 -7 -155
-88 -184 -92 -16 -2 -41 -8 -56 -14 -37 -14 -122 -14 -172 1 -22 6 -44 11 -48
10 -15 -4 -172 74 -187 93 -8 11 -10 16 -3 11 36 -21 121 -24 208 -6 116 23
116 23 224 1z"/>
<path d="M2290 2220 l0 -240 178 2 177 3 3 238 2 237 -180 0 -180 0 0 -240z"/>
<path d="M3793 1415 c0 -22 2 -30 4 -17 2 12 2 30 0 40 -3 9 -5 -1 -4 -23z"/>
<path d="M2014 1378 c-47 -73 -57 -119 -45 -195 13 -86 39 -173 51 -173 5 0
17 15 26 33 9 17 30 51 47 75 l31 43 -21 67 c-12 37 -27 95 -34 130 -6 34 -15
62 -20 62 -5 0 -21 -19 -35 -42z"/>
<path d="M2936 1378 c-4 -24 -18 -82 -33 -130 l-26 -86 25 -34 c14 -18 36 -52
48 -75 13 -24 27 -43 32 -43 15 0 50 141 51 213 2 66 -1 77 -33 131 -19 33
-40 61 -46 63 -7 2 -14 -14 -18 -39z"/>
<path d="M3763 1295 c0 -27 2 -38 4 -22 2 15 2 37 0 50 -2 12 -4 0 -4 -28z"/>
<path d="M2271 1050 c-87 -10 -103 -22 -131 -102 l-20 -57 20 -54 c35 -92 97
-141 264 -207 52 -21 61 -29 79 -69 l20 -46 8 29 c11 41 43 71 97 91 83 31
159 73 191 106 42 42 74 106 74 149 0 38 -33 119 -57 139 -32 27 -364 40 -545
21z"/>
</g>
</svg>
