<?xml version="1.0" standalone="no"?>
<!DOCTYPE svg PUBLIC "-//W3C//DTD SVG 20010904//EN"
 "http://www.w3.org/TR/2001/REC-SVG-20010904/DTD/svg10.dtd">
<svg version="1.0" xmlns="http://www.w3.org/2000/svg"
 width="1500.000000pt" height="1000.000000pt" viewBox="0 0 1500.000000 1000.000000"
 preserveAspectRatio="xMidYMid meet">

<g transform="translate(0.000000,1000.000000) scale(0.100000,-0.100000)"
fill="#000000" stroke="none">
<path d="M8012 9339 c-35 -10 -69 -20 -75 -22 -13 -5 48 -24 105 -33 34 -6 38
-4 43 19 13 49 -2 56 -73 36z"/>
<path d="M8002 8868 c-50 -112 -134 -293 -187 -403 l-95 -200 37 -8 c63 -13
680 -4 694 10 16 16 2 52 -126 328 -56 121 -128 277 -160 348 -32 70 -61 127
-65 127 -4 0 -48 -91 -98 -202z"/>
<path d="M7356 8309 c-420 -25 -828 -119 -1194 -276 -1019 -435 -1833 -1323
-2200 -2403 -121 -354 -187 -709 -207 -1112 l-7 -128 51 0 51 0 0 100 c0 372
113 909 279 1325 43 107 169 366 233 479 297 525 728 989 1228 1321 567 376
1166 575 1805 600 83 3 169 8 193 11 l42 5 0 45 0 44 -72 -1 c-40 -1 -131 -5
-202 -10z"/>
<path d="M8560 8264 c-22 -57 -19 -60 130 -109 656 -216 1298 -721 1763 -1387
458 -657 729 -1448 762 -2220 l7 -158 44 0 44 0 0 115 c0 312 -84 790 -203
1155 -130 399 -343 824 -581 1164 -444 632 -1001 1095 -1634 1355 -104 42
-299 111 -317 111 -3 0 -10 -12 -15 -26z"/>
<path d="M7934 8191 c-45 -3 -88 -12 -96 -19 -9 -7 -17 -37 -21 -73 -4 -43
-13 -71 -33 -100 -33 -48 -33 -74 0 -160 15 -40 27 -100 32 -152 4 -56 12 -91
21 -99 10 -8 85 -12 258 -12 301 -1 284 -10 292 145 4 87 9 110 29 141 38 60
39 81 6 151 -16 35 -32 84 -36 110 -4 29 -14 50 -24 56 -22 11 -321 19 -428
12z"/>
<path d="M7120 7848 c-19 -5 -39 -13 -44 -18 -8 -8 81 -40 110 -40 13 0 24 22
24 51 0 22 -30 24 -90 7z"/>
<path d="M7190 7645 c-15 -41 -9 -70 15 -70 17 0 20 6 19 38 -2 52 -20 69 -34
32z"/>
<path d="M7166 7490 c-14 -17 -32 -52 -40 -78 -8 -26 -32 -88 -54 -138 -22
-50 -43 -113 -47 -140 -4 -27 -16 -64 -26 -82 -25 -43 -24 -59 3 -73 30 -16
442 -28 1016 -28 l462 -1 0 153 c0 200 -4 224 -44 244 -41 21 -36 14 -62 91
l-23 67 -264 3 -264 2 -14 -52 c-13 -47 -20 -56 -77 -95 -35 -24 -68 -43 -73
-43 -5 0 -19 17 -31 37 l-22 36 -71 -143 c-68 -139 -108 -192 -134 -176 -6 4
-11 20 -11 36 0 39 -53 204 -95 295 -28 63 -72 115 -95 115 -5 0 -20 -14 -34
-30z"/>
<path d="M6007 7298 c-26 -6 -46 -15 -44 -21 4 -13 63 -35 95 -36 19 -1 22 4
22 34 0 38 1 38 -73 23z"/>
<path d="M8707 7278 c-47 -13 -43 -28 11 -46 54 -18 72 -11 72 28 0 34 -13 36
-83 18z"/>
<path d="M8776 7036 c-9 -36 -16 -70 -16 -76 0 -5 22 -10 50 -10 l49 0 -25 68
c-14 37 -29 71 -33 75 -5 5 -16 -21 -25 -57z"/>
<path d="M6066 7039 c-23 -76 -22 -79 23 -79 22 0 42 4 46 9 8 13 -28 114 -42
118 -7 3 -18 -17 -27 -48z"/>
<path d="M9317 6905 c-27 -7 -51 -16 -54 -19 -8 -8 56 -34 93 -38 27 -3 29 -1
29 31 0 41 -6 43 -68 26z"/>
<path d="M6045 6891 c-11 -5 -28 -17 -37 -28 -23 -26 -166 -322 -174 -360 l-6
-31 77 -7 c92 -9 471 -2 482 9 8 8 -146 313 -184 364 -40 54 -103 75 -158 53z"/>
<path d="M7047 6743 c-4 -81 -10 -172 -13 -200 -7 -51 -6 -53 22 -63 19 -8
218 -13 584 -17 614 -6 970 1 970 21 0 23 -111 381 -121 391 -6 6 -265 11
-723 13 l-713 3 -6 -148z"/>
<path d="M8727 6883 c-3 -5 -10 -35 -17 -68 -7 -33 -21 -84 -33 -114 -17 -47
-18 -62 -9 -110 23 -122 35 -131 171 -131 112 0 121 7 128 92 5 58 0 83 -32
190 -21 68 -42 129 -48 136 -10 13 -152 18 -160 5z"/>
<path d="M6746 6838 c-13 -37 -49 -201 -70 -330 -7 -36 -6 -37 28 -44 44 -8
192 -2 202 9 4 4 0 38 -10 75 -23 88 -116 332 -126 332 -5 0 -15 -19 -24 -42z"/>
<path d="M9367 6701 c-9 -22 -24 -81 -33 -131 -20 -109 -19 -111 71 -108 58 3
60 4 57 28 -7 59 -58 244 -68 247 -6 2 -19 -14 -27 -36z"/>
<path d="M5760 6374 c0 -3 7 -30 15 -59 9 -30 19 -98 23 -152 l7 -98 460 -7
c495 -7 2593 -1 2712 8 l73 6 -17 36 c-8 20 -31 77 -49 126 -18 49 -42 99 -54
110 l-21 21 -1147 3 -1147 3 -30 -58 c-33 -64 -94 -133 -118 -133 -23 0 -47
28 -47 56 0 14 9 42 20 64 27 53 25 66 -11 74 -40 8 -669 8 -669 0z"/>
<path d="M5155 6348 c-16 -5 -37 -12 -45 -15 -14 -5 89 -43 118 -43 7 0 12 14
12 35 0 32 -3 35 -27 34 -16 0 -41 -5 -58 -11z"/>
<path d="M9757 6344 c-54 -17 -53 -28 1 -44 63 -17 72 -14 72 25 0 39 -3 40
-73 19z"/>
<path d="M9279 6323 c-36 -95 -79 -257 -70 -266 13 -13 253 -22 316 -13 l47 8
-5 35 c-4 19 -21 87 -38 149 l-32 114 -104 0 -103 0 -11 -27z"/>
<path d="M5207 6128 c-9 -34 -14 -65 -11 -67 7 -7 72 -6 80 2 8 8 -26 105 -42
118 -8 7 -16 -8 -27 -53z"/>
<path d="M9821 6100 c-14 -48 -9 -60 26 -60 24 0 25 2 19 42 -12 72 -27 78
-45 18z"/>
<path d="M5780 5971 c-16 -32 -40 -158 -47 -252 l-6 -88 1074 5 c1548 7 3221
22 3228 29 3 3 -2 25 -11 48 -9 23 -30 78 -47 122 -62 162 -110 185 -195 96
-17 -17 -36 -31 -44 -31 -8 0 -29 17 -47 38 l-33 37 -463 6 c-255 4 -1124 7
-1931 8 -1441 1 -1467 1 -1478 -18z"/>
<path d="M5197 5958 c-26 -20 -117 -255 -117 -303 0 -29 28 -35 180 -35 153 0
183 6 174 34 -11 41 -131 281 -148 299 -20 20 -65 22 -89 5z"/>
<path d="M6200 5502 l-1215 -3 -50 -67 c-122 -163 -148 -203 -136 -215 17 -17
482 -26 1440 -26 l864 -1 76 44 c42 25 112 62 156 83 l80 38 150 0 150 0 90
-43 c50 -24 118 -61 152 -83 l63 -39 1067 1 c989 1 1171 4 1189 22 19 19 -50
137 -136 230 l-48 52 -288 6 c-284 7 -1208 7 -3604 1z"/>
<path d="M5900 5069 c-393 -3 -766 -7 -827 -8 l-113 -1 0 -130 0 -130 968 0
969 0 16 58 c9 32 32 92 52 133 l35 74 -22 7 c-26 7 -78 7 -1078 -3z"/>
<path d="M8120 5065 c0 -2 15 -39 34 -82 19 -43 40 -98 47 -121 9 -30 20 -47
37 -53 13 -5 421 -9 949 -9 l925 0 -5 23 c-3 12 -9 70 -13 128 l-7 106 -336 6
c-379 8 -1631 9 -1631 2z"/>
<path d="M8245 4613 c-3 -27 -20 -88 -36 -136 -16 -49 -29 -90 -29 -93 0 -2
441 -4 980 -4 l980 0 -1 28 c0 15 -10 74 -22 132 l-22 105 -65 6 c-36 4 -450
7 -921 8 l-857 1 -7 -47z"/>
<path d="M5163 4643 l-202 -3 -10 -38 c-29 -110 -51 -202 -51 -211 0 -8 295
-11 1021 -11 968 0 1021 1 1014 18 -27 70 -45 136 -51 190 l-7 62 -756 -2
c-416 -2 -847 -4 -958 -5z"/>
<path d="M3220 3987 c0 -32 39 -104 105 -194 104 -142 200 -365 240 -552 42
-199 38 -429 -11 -648 -67 -304 -173 -514 -331 -664 -190 -179 -397 -218 -548
-104 -67 52 -57 80 82 228 187 200 235 272 288 432 58 176 39 438 -42 563 -19
30 -44 51 -81 69 -47 23 -61 25 -145 21 -81 -3 -102 -8 -167 -39 -170 -81
-325 -288 -362 -484 -20 -106 -16 -383 7 -549 l19 -139 -22 -17 c-29 -24 -109
-34 -159 -21 -87 24 -157 100 -190 210 -35 113 -18 392 38 616 91 363 227 619
456 853 89 91 126 148 121 185 -5 35 -66 35 -143 -1 -241 -114 -447 -339 -600
-657 -147 -308 -220 -713 -170 -950 44 -207 197 -369 384 -405 80 -15 204 -12
281 6 l69 17 83 -88 c142 -151 231 -194 418 -202 193 -8 313 29 503 159 135
92 242 200 338 339 45 65 85 119 90 119 11 0 39 -54 39 -77 0 -10 -11 -53 -25
-96 -60 -186 -17 -323 104 -335 68 -6 89 17 131 144 18 54 43 120 56 146 28
56 48 62 178 57 104 -5 122 -18 136 -102 22 -136 133 -253 190 -202 28 25 40
77 40 168 0 42 4 77 8 77 5 0 26 -32 47 -71 72 -130 138 -165 269 -141 103 19
201 75 288 164 l77 79 5 -33 c3 -18 8 -98 11 -178 4 -80 11 -161 16 -180 11
-44 74 -127 117 -156 60 -41 141 -43 162 -4 6 11 14 169 20 357 9 353 20 435
66 525 22 42 30 48 79 48 102 0 199 47 256 124 29 38 30 46 26 106 -7 99 -40
175 -90 208 -36 24 -50 27 -121 27 -96 -1 -126 -14 -237 -104 -41 -34 -79 -61
-86 -61 -20 0 -176 51 -214 71 -40 20 -94 76 -104 108 -12 40 -54 21 -85 -37
-19 -38 -15 -122 8 -168 26 -51 65 -85 180 -158 51 -32 92 -64 92 -71 0 -23
-48 -199 -69 -257 l-22 -56 -24 24 c-13 13 -35 24 -47 24 -13 0 -84 -18 -158
-40 -74 -23 -148 -40 -165 -38 -30 3 -30 3 -28 63 0 33 24 155 52 270 61 257
71 311 71 392 0 72 -20 103 -67 103 -37 0 -113 -81 -151 -161 -43 -90 -99
-280 -129 -439 -30 -160 -43 -213 -48 -208 -3 2 -16 83 -30 178 -55 370 -114
597 -169 658 -43 47 -90 49 -123 6 -12 -16 -52 -67 -89 -114 -87 -110 -135
-184 -229 -355 -86 -155 -100 -175 -126 -175 -39 0 -40 33 -9 152 55 208 64
562 20 773 -49 230 -106 353 -233 501 -116 134 -319 331 -376 362 l-41 23 0
-24z m-459 -1027 c55 -74 46 -313 -20 -503 -27 -78 -76 -167 -118 -217 -56
-65 -63 -57 -63 70 0 259 48 505 125 636 29 50 47 53 76 14z m3149 -350 c0
-22 -28 -40 -64 -40 -36 0 -40 15 -10 39 35 27 74 28 74 1z m-1566 -289 c13
-82 -16 -130 -70 -117 -34 9 -31 44 7 117 36 66 52 66 63 0z"/>
<path d="M6275 3839 c-248 -23 -400 -75 -460 -157 -67 -91 -71 -162 -10 -188
70 -29 205 -8 205 32 0 10 -10 28 -22 41 -41 44 -20 48 260 51 283 4 395 -6
607 -53 246 -55 433 -121 673 -236 292 -139 515 -290 688 -463 141 -142 220
-257 294 -431 33 -77 35 -85 35 -200 -1 -111 -3 -124 -29 -180 -44 -92 -167
-208 -281 -267 -165 -84 -281 -111 -540 -123 -155 -8 -392 7 -433 28 -24 11
-28 20 -34 77 -4 36 -8 171 -9 301 -1 185 2 242 13 265 13 29 14 29 103 28
177 -1 575 -107 575 -154 0 -5 -19 -28 -41 -52 -23 -24 -48 -54 -57 -67 -15
-22 -15 -24 3 -37 29 -21 141 -18 193 6 178 81 201 224 58 365 -128 127 -370
204 -694 221 -98 6 -125 10 -131 23 -5 9 -14 66 -21 126 -23 214 -50 298 -110
349 -61 51 -84 30 -115 -99 -13 -55 -33 -167 -45 -250 -12 -82 -25 -154 -30
-158 -4 -5 -74 -26 -155 -48 -266 -71 -382 -118 -482 -197 -98 -78 -115 -167
-51 -268 92 -146 369 -374 590 -485 l76 -38 26 -108 c33 -139 47 -153 147
-153 84 0 103 9 129 60 12 24 30 42 44 46 13 3 88 -2 167 -12 114 -13 187 -15
349 -11 311 10 393 29 655 157 208 101 320 203 400 365 45 91 65 179 65 288 0
107 -11 158 -60 262 -154 334 -471 669 -844 893 -432 260 -932 418 -1426 452
-160 11 -148 11 -275 -1z m606 -1485 l36 -6 6 -88 c8 -102 -9 -345 -26 -397
-21 -63 -32 -63 -158 2 -178 90 -340 207 -412 297 -56 70 -17 107 156 148 165
39 322 56 398 44z"/>
<path d="M9215 3565 c-123 -26 -276 -113 -366 -207 -57 -61 -95 -134 -109
-210 -11 -60 -4 -106 39 -233 11 -33 25 -82 31 -110 6 -27 18 -58 27 -67 23
-25 68 -22 111 7 33 23 46 25 142 25 252 1 383 58 588 255 116 110 152 190
131 285 -15 66 -49 104 -131 144 -40 20 -94 50 -119 67 -86 56 -213 73 -344
44z m-35 -189 c0 -11 -154 -116 -169 -116 -10 0 7 23 46 60 48 47 68 60 92 60
17 0 31 -2 31 -4z m440 -83 c28 -23 31 -31 27 -61 -12 -73 -116 -160 -257
-216 -62 -24 -90 -29 -165 -30 -76 -1 -90 2 -93 16 -6 30 237 250 333 301 49
26 118 22 155 -10z"/>
<path d="M11039 2713 c-16 -42 -4 -129 46 -312 63 -231 90 -421 63 -437 -17
-11 -51 34 -203 261 -130 193 -182 259 -230 291 -20 13 -27 13 -59 0 -27 -11
-42 -28 -64 -73 -76 -150 -132 -433 -132 -668 0 -126 13 -165 69 -202 42 -28
71 -29 105 -2 37 29 52 93 75 328 11 112 23 206 26 209 7 8 23 -14 112 -153
134 -211 164 -253 215 -301 49 -46 50 -46 109 -42 76 5 131 43 177 118 45 77
54 110 59 235 4 91 0 131 -21 235 -14 69 -35 154 -47 190 -46 143 -201 350
-260 350 -23 0 -32 -6 -40 -27z"/>
<path d="M9801 2610 c-167 -21 -351 -96 -409 -166 -39 -47 -66 -133 -59 -190
9 -81 70 -122 210 -145 43 -6 76 -16 75 -21 -2 -5 -34 -19 -71 -32 -37 -12
-79 -33 -93 -47 -57 -52 -81 -157 -49 -218 40 -79 216 -187 343 -212 85 -16
329 -7 402 16 193 60 282 170 267 332 -11 119 -66 202 -161 244 -54 23 -204
53 -401 80 -88 11 -185 29 -215 39 l-55 17 29 12 c44 18 194 38 411 56 305 25
398 48 411 99 16 64 -31 95 -181 121 -111 19 -355 27 -454 15z m304 -585 c64
-28 105 -60 105 -82 0 -16 -65 -59 -105 -69 l-30 -7 28 32 c15 18 27 38 27 45
0 25 -43 51 -138 84 l-97 33 75 -5 c52 -3 94 -12 135 -31z m-342 -147 c64 -23
117 -45 117 -49 0 -13 -70 -22 -175 -23 -78 0 -108 4 -138 18 -45 22 -66 58
-48 80 29 35 88 28 244 -26z"/>
<path d="M9067 2580 c-51 -60 -80 -297 -81 -660 -1 -256 0 -266 21 -307 18
-33 31 -44 60 -52 49 -14 72 -14 113 0 65 23 77 114 61 459 -12 261 -27 436
-42 492 -13 49 -55 98 -84 98 -13 0 -34 -12 -48 -30z"/>
<path d="M12715 2560 c-117 -93 -254 -301 -316 -478 -26 -74 -35 -219 -19
-292 23 -100 18 -144 -39 -320 -68 -213 -116 -404 -132 -522 -17 -131 0 -187
80 -269 49 -51 62 -59 94 -59 44 0 49 8 71 115 43 203 162 599 206 684 21 42
31 46 182 75 253 50 479 242 559 476 30 89 33 243 5 315 -32 81 -85 164 -116
180 -39 20 -133 19 -173 -1 -66 -34 -157 -114 -335 -291 -101 -101 -188 -183
-193 -183 -33 0 27 156 126 325 71 122 88 182 71 250 -8 33 -25 32 -71 -5z
m531 -347 c44 -105 -33 -261 -179 -362 -49 -33 -158 -81 -185 -81 -49 0 116
258 261 409 37 39 72 71 78 71 5 0 17 -17 25 -37z"/>
<path d="M11926 2559 c-153 -9 -337 -33 -394 -52 -32 -11 -37 -16 -35 -41 3
-34 52 -90 104 -116 19 -10 41 -25 48 -34 27 -33 -18 -107 -112 -183 -23 -18
-27 -29 -27 -70 0 -27 -7 -73 -15 -103 -25 -91 -45 -199 -45 -244 0 -54 49
-154 95 -195 94 -82 263 -64 502 54 126 63 193 114 193 148 0 7 -13 33 -28 58
l-28 44 -105 -6 c-57 -4 -159 -10 -226 -14 -88 -6 -123 -5 -123 3 0 17 38 116
53 136 10 14 43 19 192 30 165 12 180 15 197 36 24 30 24 101 -1 124 -12 11
-50 20 -107 27 -49 6 -108 13 -132 15 -25 3 -46 12 -49 20 -10 27 7 83 30 96
12 6 92 15 177 20 322 17 361 51 228 194 l-60 64 -97 -1 c-53 -1 -159 -6 -235
-10z"/>
</g>
</svg>
