<?xml version="1.0" standalone="no"?>
<!DOCTYPE svg PUBLIC "-//W3C//DTD SVG 20010904//EN"
 "http://www.w3.org/TR/2001/REC-SVG-20010904/DTD/svg10.dtd">
<svg version="1.0" xmlns="http://www.w3.org/2000/svg"
 width="1600.000000pt" height="1600.000000pt" viewBox="0 0 1600.000000 1600.000000"
 preserveAspectRatio="xMidYMid meet">

<g transform="translate(0.000000,1600.000000) scale(0.100000,-0.100000)"
fill="#000000" stroke="none">
<path d="M7500 15924 c-1036 -58 -1917 -263 -2780 -647 -406 -180 -975 -499
-1120 -628 -33 -29 -33 -29 -4 -10 59 39 189 99 270 124 145 46 253 60 449 61
239 0 392 -24 660 -104 712 -213 1683 -763 2698 -1527 99 -74 185 -137 191
-139 7 -3 87 51 177 119 359 271 781 556 1144 774 756 454 1392 723 1952 825
164 29 496 32 623 4 171 -37 324 -104 440 -193 l45 -35 -45 42 c-160 147 -435
317 -840 520 -894 448 -1809 704 -2840 796 -165 14 -861 27 -1020 18z"/>
<path d="M12445 13881 c-766 -268 -1727 -853 -2595 -1580 -208 -174 -550 -483
-559 -503 -1 -5 98 -111 221 -236 968 -982 1918 -2133 2543 -3081 504 -765
975 -1619 1242 -2251 458 -1084 577 -2082 382 -3180 -11 -63 -23 -122 -25
-130 -3 -8 -21 46 -40 120 -160 625 -524 1382 -1018 2120 -202 302 -392 547
-895 1150 -768 921 -1399 1623 -2341 2600 -312 324 -1275 1287 -1409 1409
l-84 76 -544 -550 c-1526 -1543 -2080 -2119 -2488 -2585 -1042 -1191 -1854
-2327 -2294 -3210 -136 -272 -198 -420 -272 -641 -50 -152 -71 -237 -117 -484
l-8 -40 -22 80 c-93 330 -107 808 -42 1351 85 703 322 1541 677 2394 262 630
748 1450 1393 2355 690 966 1572 2037 2159 2619 l130 130 -72 80 c-139 154
-565 546 -852 783 -164 135 -458 353 -645 479 -622 417 -1185 656 -1696 719
-119 15 -137 15 -228 0 -275 -46 -521 -178 -736 -394 -349 -353 -769 -910
-1065 -1416 -107 -183 -300 -558 -388 -755 -609 -1365 -811 -2888 -581 -4380
175 -1135 614 -2244 1262 -3190 618 -902 1412 -1660 2347 -2242 377 -235 902
-494 1314 -650 1219 -461 2524 -612 3811 -442 873 115 1707 374 2495 774 1603
813 2891 2175 3613 3817 370 841 582 1724 643 2671 17 275 6 930 -20 1196
-132 1319 -552 2506 -1270 3586 -346 521 -869 1131 -1100 1285 -142 94 -320
155 -511 175 -161 16 -195 13 -315 -29z"/>
</g>
</svg>
